<?xml version="1.0" standalone="no"?>
<!DOCTYPE svg PUBLIC "-//W3C//DTD SVG 20010904//EN"
 "http://www.w3.org/TR/2001/REC-SVG-20010904/DTD/svg10.dtd">
<svg version="1.0" xmlns="http://www.w3.org/2000/svg"
 width="934.000000pt" height="1206.000000pt" viewBox="0 0 934.000000 1206.000000"
 preserveAspectRatio="xMidYMid meet">
<metadata>
Created by potrace 1.16, written by Peter Selinger 2001-2019
</metadata>
<g transform="translate(0.000000,1206.000000) scale(0.100000,-0.100000)"
fill="#000000" stroke="none">
<path d="M4965 11786 c-80 -31 -115 -47 -145 -67 -17 -11 -57 -19 -120 -24
-114 -8 -277 -45 -369 -83 -161 -68 -314 -197 -378 -319 -34 -65 -48 -119 -63
-244 -10 -81 -13 -89 -50 -128 -31 -33 -45 -40 -63 -36 -32 8 -92 -17 -111
-47 -14 -22 -76 -414 -76 -483 0 -40 38 -81 91 -96 29 -9 41 -19 49 -43 13
-39 47 -74 85 -91 23 -9 39 -29 62 -76 39 -79 111 -169 180 -225 45 -37 50
-44 33 -49 -10 -3 -30 -19 -43 -34 -20 -24 -34 -30 -88 -36 -228 -25 -455 -92
-510 -151 -17 -18 -33 -24 -64 -24 -100 0 -185 -47 -230 -127 -71 -128 -72
-277 -3 -503 20 -64 22 -88 17 -165 -4 -49 -10 -182 -14 -294 l-7 -204 -53
-64 c-29 -35 -69 -97 -89 -136 -57 -115 -67 -189 -68 -517 -1 -306 7 -417 49
-620 45 -223 45 -215 17 -268 -30 -58 -41 -184 -25 -282 l11 -64 -45 -56 c-88
-109 -118 -159 -126 -208 -4 -26 -10 -57 -14 -69 -7 -22 11 -46 95 -130 14
-14 24 -30 22 -35 -17 -58 -56 -223 -63 -267 -18 -111 -58 -450 -75 -631 -21
-238 -15 -732 12 -942 9 -76 15 -140 13 -142 -3 -3 -92 -10 -199 -15 -263 -15
-420 -28 -640 -56 -365 -47 -671 -96 -757 -121 -48 -15 -95 -28 -103 -31 -9
-2 -44 12 -79 32 -45 25 -85 38 -135 45 -39 6 -79 13 -89 16 -27 8 -163 -24
-226 -54 -111 -53 -196 -169 -235 -322 -21 -84 -35 -241 -31 -355 1 -49 6
-196 9 -325 9 -332 13 -385 37 -470 37 -136 90 -182 240 -210 87 -17 113 -18
159 -9 67 14 86 23 128 63 49 45 59 70 82 201 11 64 45 230 75 369 l55 251 62
100 c33 55 75 124 92 153 26 46 34 52 56 48 33 -7 76 -13 185 -26 85 -10 125
-15 205 -25 19 -2 71 -7 115 -10 44 -3 127 -10 185 -15 58 -5 157 -12 220 -15
63 -3 138 -8 165 -10 28 -2 133 -7 235 -10 356 -11 399 -14 499 -40 131 -33
187 -40 311 -40 113 1 144 10 189 59 21 22 25 37 26 94 1 49 9 82 28 124 146
316 324 1178 353 1702 3 55 7 115 10 133 l5 31 30 -15 c45 -23 137 -12 211 25
l59 29 68 -76 c86 -95 247 -235 596 -518 323 -261 748 -525 1060 -658 114 -49
288 -109 349 -121 20 -3 36 -9 36 -13 0 -31 38 -220 67 -331 44 -174 136 -469
172 -557 15 -37 62 -140 103 -228 99 -209 340 -747 363 -807 14 -38 15 -52 6
-81 -7 -19 -13 -62 -14 -94 -1 -66 24 -127 94 -220 56 -75 96 -110 169 -146
61 -30 71 -32 165 -31 83 1 116 7 194 33 95 32 243 102 386 183 44 25 116 63
160 84 337 161 441 296 351 458 -11 21 -27 50 -35 65 -45 84 -123 141 -195
141 -18 0 -62 -9 -97 -21 -35 -11 -170 -47 -299 -80 -211 -53 -245 -59 -337
-59 l-102 0 -6 33 c-3 17 -10 73 -15 122 -27 232 -164 957 -246 1295 -23 95
-25 124 -24 305 0 283 -22 397 -91 466 -44 44 -70 48 -138 24 -41 -14 -43 -14
-91 16 -27 16 -65 33 -84 36 -26 4 -44 18 -76 57 -94 116 -481 495 -740 725
-52 46 -111 98 -130 115 -19 18 -93 81 -164 141 -389 331 -621 512 -754 586
-40 22 -43 26 -37 54 4 16 9 82 12 145 4 100 2 124 -16 174 -11 33 -27 66 -35
75 -13 14 -10 30 25 135 21 65 39 124 39 130 0 7 6 20 13 30 13 18 19 17 153
-8 76 -15 159 -31 184 -36 25 -5 97 -19 160 -30 63 -11 147 -27 185 -35 66
-13 246 -47 328 -61 20 -3 40 -10 43 -15 3 -5 24 -9 47 -9 68 0 112 39 157
138 10 23 22 42 25 42 3 0 27 -16 53 -36 60 -46 212 -119 288 -139 151 -39
350 11 454 115 80 79 108 195 111 458 1 121 0 127 -22 145 -25 20 -43 20 -189
-3 -36 -5 -90 -9 -120 -8 l-55 1 58 6 c59 6 87 25 87 59 0 25 -54 68 -113 90
-73 28 -225 30 -308 6 -30 -9 -122 -51 -206 -94 l-151 -79 -115 59 c-174 91
-555 254 -714 305 -29 10 -53 23 -53 30 0 7 13 52 29 101 16 49 46 143 66 209
20 66 52 167 70 225 50 159 61 202 92 360 24 124 28 170 27 315 0 186 -10 247
-66 383 -22 52 -29 83 -25 110 3 20 -2 68 -10 106 -18 83 -67 142 -144 178
l-50 22 115 59 c185 94 257 173 273 298 12 87 -4 163 -55 273 -24 50 -36 88
-31 93 5 5 19 81 30 169 11 87 25 174 31 192 14 48 18 162 7 208 -6 21 -12 82
-14 134 -6 143 -13 179 -53 255 -44 84 -154 203 -229 248 -29 17 -53 36 -53
42 0 5 4 36 10 69 11 69 -3 114 -41 133 -28 13 -174 33 -239 32 -25 0 -72 -10
-105 -23z m248 -30 c45 -7 83 -19 88 -27 5 -8 8 -34 8 -59 l-2 -45 -6 43 c-4
23 -13 48 -19 54 -17 17 -152 36 -184 26 -34 -12 -44 -40 -59 -161 -12 -95
-12 -99 8 -119 39 -38 181 -50 213 -18 14 14 20 16 20 7 0 -8 -9 -22 -20 -32
-18 -16 -27 -17 -112 -6 -117 16 -126 18 -138 42 -13 24 16 253 37 287 16 26
47 28 166 8z m41 -66 c6 -6 5 -47 -5 -112 l-14 -103 -70 3 c-96 4 -101 9 -86
114 19 130 12 122 94 114 40 -4 76 -11 81 -16z m-341 -147 c14 -16 35 -49 47
-75 11 -26 31 -53 43 -60 23 -12 170 -37 224 -38 45 0 81 35 96 93 l12 48 68
-51 c37 -28 85 -74 108 -102 41 -52 87 -133 72 -127 -4 2 -36 19 -70 36 -34
18 -92 44 -129 58 l-67 25 -58 -20 -58 -21 -113 35 c-167 52 -235 62 -305 47
-97 -22 -252 -89 -340 -147 -88 -59 -165 -141 -229 -244 -27 -45 -42 -59 -53
-55 -16 7 -184 34 -208 35 -42 0 24 122 124 231 174 188 458 319 763 352 19 2
38 5 41 5 3 1 17 -10 32 -25z m-26 -373 c92 -22 200 -67 249 -105 18 -14 36
-25 39 -25 4 0 31 22 61 49 l53 48 53 -9 c73 -14 160 -50 218 -93 41 -30 52
-46 65 -87 21 -70 29 -141 21 -183 l-7 -36 -30 26 c-17 14 -39 25 -50 25 -13
0 -24 13 -35 40 -21 52 -62 86 -126 105 -92 27 -170 15 -182 -28 -10 -41 8
-54 86 -59 42 -3 86 -12 103 -22 l30 -17 -30 5 c-90 15 -119 18 -159 18 -80 0
-135 -48 -151 -129 -9 -47 -29 -37 -32 17 -6 103 -62 141 -246 166 -70 10
-127 22 -127 26 0 16 55 30 92 24 21 -4 58 -16 83 -28 56 -28 80 -18 80 33 0
31 -5 36 -50 59 -70 35 -176 40 -232 12 -46 -24 -64 -43 -66 -70 -1 -15 -11
-22 -40 -26 -22 -4 -52 -13 -68 -22 -31 -16 -69 -68 -69 -94 0 -12 -14 -14
-79 -12 l-79 3 -7 39 c-4 27 -1 48 10 70 36 69 183 188 297 239 55 25 85 33
193 55 38 7 50 6 132 -14z m-847 -265 c86 -10 125 -27 145 -64 15 -30 13 -48
-27 -328 -54 -380 -52 -378 -232 -349 -69 12 -95 21 -114 39 l-24 24 62 -9
c81 -13 120 -4 154 31 27 28 30 43 63 263 19 128 31 247 28 265 -9 51 -63 91
-135 99 -33 4 -60 11 -60 16 0 11 40 26 60 23 8 -1 44 -6 80 -10z m725 -66
c174 -24 196 -31 231 -72 21 -25 25 -38 21 -68 -3 -21 -13 -48 -22 -61 -17
-23 -17 -23 -11 15 9 48 -16 102 -58 124 -31 17 -239 52 -306 53 -38 0 -93
-29 -108 -57 -6 -10 -17 -67 -26 -126 -18 -123 -10 -161 40 -194 35 -23 294
-62 344 -52 54 12 87 56 96 131 l8 63 8 -40 c18 -97 -13 -175 -78 -191 -35 -9
-354 33 -405 53 -23 9 -43 27 -55 48 -18 34 -18 38 3 187 20 146 23 154 52
180 39 35 64 35 266 7z m-743 -38 l33 -29 -33 -234 c-37 -259 -44 -278 -108
-278 l-33 0 19 33 c19 33 86 454 77 486 -3 9 -8 24 -12 34 -11 27 20 21 57
-12z m686 -27 c9 -3 5 -18 -14 -56 -31 -61 -42 -153 -25 -212 6 -22 9 -41 8
-42 -1 -1 -27 2 -56 7 -37 5 -63 17 -79 33 l-25 24 13 102 c14 108 32 146 73
152 22 4 81 0 105 -8z m709 -14 c141 -21 171 -32 199 -74 14 -23 14 -37 -6
-173 -33 -229 -40 -235 -268 -203 -87 13 -169 29 -184 36 -32 17 -61 66 -56
97 3 20 5 20 18 -8 26 -52 67 -70 196 -88 146 -21 167 -21 204 -2 39 20 55 54
69 148 17 120 15 151 -14 186 -31 36 -59 45 -203 66 -130 19 -166 14 -204 -27
-19 -20 -28 -25 -28 -15 0 9 14 29 31 46 37 38 56 39 246 11z m-1591 -15 c12
-3 24 -14 27 -25 8 -29 -33 -301 -48 -326 -14 -21 -24 -22 -92 -8 -20 4 -23
11 -23 52 0 67 36 290 49 306 10 12 29 12 87 1z m1034 9 c24 -5 36 -15 46 -40
22 -52 18 -141 -10 -199 -32 -70 -44 -78 -110 -70 -52 7 -55 9 -70 46 -29 72
-15 180 31 244 19 26 51 31 113 19z m-454 -52 c-3 -20 -6 -45 -6 -54 0 -16
-11 -18 -81 -18 l-82 0 6 50 c3 28 8 54 11 58 2 4 39 6 81 4 l77 -4 -6 -36z
m963 -8 c33 -24 51 -74 51 -146 0 -64 -23 -132 -51 -154 -10 -8 -33 -9 -81 -2
-65 10 -68 11 -79 45 -25 78 9 206 67 252 32 25 61 27 93 5z m134 -17 c59 -25
62 -34 45 -158 -9 -60 -21 -116 -28 -124 -14 -16 -73 -30 -94 -22 -12 5 -11
13 6 49 28 58 35 162 15 222 -15 44 -15 46 4 46 11 0 34 -6 52 -13z m-1119
-135 c-8 -61 12 -110 58 -145 40 -31 71 -38 285 -68 l161 -22 49 24 c56 28 93
78 93 125 0 26 4 34 18 34 14 0 17 -7 14 -42 -2 -27 4 -56 15 -78 31 -61 64
-74 242 -99 152 -22 186 -23 237 -6 18 5 25 -4 59 -76 31 -67 39 -97 43 -159
9 -158 -50 -227 -307 -351 -220 -108 -294 -132 -401 -133 -83 -1 -88 0 -212
56 -70 32 -174 69 -230 83 -250 63 -358 114 -468 225 -45 44 -89 101 -108 138
l-34 63 28 -7 c16 -4 54 -8 85 -8 70 -1 127 33 151 90 9 22 26 109 38 194 31
236 18 210 111 210 l80 0 -7 -48z m-664 -1157 c170 -85 381 -259 490 -403 100
-133 158 -286 147 -393 -11 -102 -15 -101 -86 38 -102 197 -190 325 -330 482
-104 116 -271 255 -417 348 -37 24 122 -35 196 -72z m1824 -368 c23 -115 27
-217 15 -344 -14 -157 -39 -273 -101 -480 -48 -159 -53 -172 -77 -176 -14 -3
-28 -4 -30 -1 -2 2 12 77 32 166 73 332 116 646 118 863 0 115 1 118 14 82 8
-21 21 -71 29 -110z m-694 -858 c130 -59 194 -211 145 -348 -15 -45 -51 -101
-64 -101 -4 0 -26 33 -49 73 -23 39 -84 142 -137 227 -106 174 -106 168 0 169
40 0 75 -6 105 -20z m535 -201 c-12 -37 -105 -339 -105 -343 0 -3 -9 -5 -21
-5 -13 0 -19 5 -16 13 2 6 24 87 48 180 43 165 43 167 71 167 17 0 26 -4 23
-12z m1456 -609 c61 -13 116 -57 105 -84 -6 -16 -15 -17 -94 -11 -162 13 -157
13 -157 -9 0 -28 81 -55 188 -62 l87 -6 0 -51 c-1 -28 -7 -121 -13 -207 -12
-138 -16 -161 -40 -201 -15 -26 -43 -56 -63 -68 -31 -19 -45 -22 -98 -17 -69
6 -178 46 -297 108 -88 46 -89 47 -89 190 0 117 13 176 65 285 l42 90 59 22
c32 11 68 23 79 25 41 9 176 7 226 -4z m-644 -377 c22 -14 43 -81 43 -139 0
-74 -15 -126 -45 -160 -19 -23 -27 -26 -42 -17 -65 39 -73 237 -12 311 13 14
38 17 56 5z m-2406 -944 c64 -68 127 -201 159 -341 51 -219 40 -736 -26 -1207
-62 -442 -188 -979 -286 -1218 l-22 -52 -12 29 c-7 16 -12 59 -13 96 0 36 -5
92 -11 123 -11 53 -9 63 18 138 94 253 181 675 212 1029 19 214 24 559 11 780
-11 184 -40 495 -58 608 -6 43 -2 45 28 15z m1222 -124 c175 -91 842 -643
1317 -1092 155 -147 461 -460 467 -478 1 -5 -27 -18 -62 -30 l-65 -20 -179
191 c-508 542 -1046 989 -1554 1294 l-89 54 31 15 c17 8 44 29 59 48 32 38 34
39 75 18z m-3786 -2699 l39 -60 -89 -145 c-49 -80 -90 -146 -92 -148 -2 -2
-49 50 -106 115 -56 65 -110 127 -120 138 -17 20 -17 20 59 20 63 1 86 6 128
27 50 26 124 97 124 120 0 17 13 2 57 -67z m1785 -145 c113 -28 325 -37 391
-17 45 14 47 14 47 -4 0 -49 -89 -67 -220 -44 -110 18 -349 85 -307 85 3 0 43
-9 89 -20z m4785 -1067 c-2 -5 -39 -70 -82 -146 l-78 -138 -17 38 c-33 71
-107 127 -185 140 l-34 5 47 54 47 54 153 0 c84 0 151 -3 149 -7z"/>
<path d="M5043 10304 c-8 -21 66 -96 132 -134 l50 -29 -30 -11 c-16 -6 -52
-16 -80 -21 -71 -14 -95 -26 -95 -47 0 -13 14 -23 53 -35 66 -21 106 -22 134
-2 25 18 83 106 83 128 0 9 -22 26 -55 41 -30 14 -79 48 -108 75 -57 54 -74
61 -84 35z"/>
<path d="M4777 9993 c-18 -17 -2 -44 46 -81 70 -53 105 -63 237 -63 114 0 138
7 127 35 -5 13 -26 16 -122 16 -130 0 -161 9 -229 65 -46 37 -49 39 -59 28z"/>
</g>
</svg>
